<svg width="167" height="24" viewBox="0 0 167 24" fill="none" xmlns="http://www.w3.org/2000/svg">
<path d="M16.608 0.535999V4.92H7.456V9.656H14.304V13.912H7.456V23H1.984V0.535999H16.608ZM24.956 18.776H32.124V23H19.484V0.535999H24.956V18.776ZM40.206 4.92V9.464H47.534V13.688H40.206V18.616H48.494V23H34.734V0.535999H48.494V4.92H40.206ZM57.5185 4.92V9.464H64.8465V13.688H57.5185V18.616H65.8065V23H52.0465V0.535999H65.8065V4.92H57.5185ZM85.519 0.535999V4.92H79.567V23H74.095V4.92H68.143V0.535999H85.519ZM94.0893 18.52H103.753V23H87.8813V18.84L97.4813 5.016H87.8813V0.535999H103.753V4.696L94.0893 18.52Z" fill="white"/>
<circle cx="5" cy="5" r="5" transform="matrix(1 0 0 -1 108 23)" fill="#51CEDF"/>
<path d="M130.988 21.512H127.844L127.34 23H125.192L128.24 14.576H130.616L133.664 23H131.492L130.988 21.512ZM130.46 19.928L129.416 16.844L128.384 19.928H130.46ZM134.184 19.64C134.184 18.952 134.312 18.348 134.568 17.828C134.832 17.308 135.188 16.908 135.636 16.628C136.084 16.348 136.584 16.208 137.136 16.208C137.576 16.208 137.976 16.3 138.336 16.484C138.704 16.668 138.992 16.916 139.2 17.228V14.12H141.252V23H139.2V22.04C139.008 22.36 138.732 22.616 138.372 22.808C138.02 23 137.608 23.096 137.136 23.096C136.584 23.096 136.084 22.956 135.636 22.676C135.188 22.388 134.832 21.984 134.568 21.464C134.312 20.936 134.184 20.328 134.184 19.64ZM139.2 19.652C139.2 19.14 139.056 18.736 138.768 18.44C138.488 18.144 138.144 17.996 137.736 17.996C137.328 17.996 136.98 18.144 136.692 18.44C136.412 18.728 136.272 19.128 136.272 19.64C136.272 20.152 136.412 20.56 136.692 20.864C136.98 21.16 137.328 21.308 137.736 21.308C138.144 21.308 138.488 21.16 138.768 20.864C139.056 20.568 139.2 20.164 139.2 19.652ZM151.28 16.232C152.112 16.232 152.772 16.484 153.26 16.988C153.756 17.492 154.004 18.192 154.004 19.088V23H151.964V19.364C151.964 18.932 151.848 18.6 151.616 18.368C151.392 18.128 151.08 18.008 150.68 18.008C150.28 18.008 149.964 18.128 149.732 18.368C149.508 18.6 149.396 18.932 149.396 19.364V23H147.356V19.364C147.356 18.932 147.24 18.6 147.008 18.368C146.784 18.128 146.472 18.008 146.072 18.008C145.672 18.008 145.356 18.128 145.124 18.368C144.9 18.6 144.788 18.932 144.788 19.364V23H142.736V16.304H144.788V17.144C144.996 16.864 145.268 16.644 145.604 16.484C145.94 16.316 146.32 16.232 146.744 16.232C147.248 16.232 147.696 16.34 148.088 16.556C148.488 16.772 148.8 17.08 149.024 17.48C149.256 17.112 149.572 16.812 149.972 16.58C150.372 16.348 150.808 16.232 151.28 16.232ZM156.471 15.608C156.111 15.608 155.815 15.504 155.583 15.296C155.359 15.08 155.247 14.816 155.247 14.504C155.247 14.184 155.359 13.92 155.583 13.712C155.815 13.496 156.111 13.388 156.471 13.388C156.823 13.388 157.111 13.496 157.335 13.712C157.567 13.92 157.683 14.184 157.683 14.504C157.683 14.816 157.567 15.08 157.335 15.296C157.111 15.504 156.823 15.608 156.471 15.608ZM157.491 16.304V23H155.439V16.304H157.491ZM163.058 16.232C163.842 16.232 164.466 16.488 164.93 17C165.402 17.504 165.638 18.2 165.638 19.088V23H163.598V19.364C163.598 18.916 163.482 18.568 163.25 18.32C163.018 18.072 162.706 17.948 162.314 17.948C161.922 17.948 161.61 18.072 161.378 18.32C161.146 18.568 161.03 18.916 161.03 19.364V23H158.978V16.304H161.03V17.192C161.238 16.896 161.518 16.664 161.87 16.496C162.222 16.32 162.618 16.232 163.058 16.232Z" fill="white"/>
</svg>
